<?xml version="1.0" encoding="UTF-8"?>
<svg width="22px" height="18px" viewBox="0 0 22 18" version="1.1" xmlns="http://www.w3.org/2000/svg" xmlns:xlink="http://www.w3.org/1999/xlink">
    <!-- Generator: Sketch 47.1 (45422) - http://www.bohemiancoding.com/sketch -->
    <title>应用群组</title>
    <desc>Created with Sketch.</desc>
    <defs></defs>
    <g id="Page-1" stroke="none" stroke-width="1" fill="none" fill-rule="evenodd">
        <g id="FAQ" transform="translate(-120.000000, -636.000000)" fill-rule="nonzero" fill="#1D1D1D">
            <g id="图标及文本结合" transform="translate(0.000000, 623.000000)">
                <g id="应用群组" transform="translate(120.000000, 11.000000)">
                    <path d="M12.5,3.39197015 C12.7731274,3.34095874 13.0580107,3.31470588 13.3529412,3.31470588 C15.8638949,3.31470588 17.6465944,5.2176001 17.6465944,8.10125021 C17.6465944,9.91519373 16.9635407,11.7220892 15.8595224,12.8460063 C15.7937343,12.9129801 15.7264515,12.9775287 15.6577293,13.0395091 C15.6053585,13.0867422 15.5521517,13.1324838 15.4981337,13.1766706 L14.8966375,12.441346 L15.8465738,12.4303505 C15.8482396,12.5742631 15.8523246,12.7101592 15.8595224,12.8460063 C15.8637048,12.9249435 15.8689383,13.0038642 15.8753589,13.0843316 C15.8776457,13.112991 15.880083,13.1418466 15.8826771,13.1709691 L15.8869177,13.2186778 L14.9406483,13.3027862 L15.8324411,12.9753634 L15.8490316,13.0205508 C15.8569708,13.0421968 15.8657131,13.0634355 15.8753589,13.0843316 C16.0422121,13.4457936 16.4794126,13.7047457 17.7070391,14.196223 C17.78298,14.2266259 17.78298,14.2266259 17.8597476,14.2574373 C20.0524586,15.1386089 21.0479714,15.9090403 21.3482,17.6665712 C21.447311,18.246765 21.0003629,18.7765369 20.4117647,18.7765369 L17.5,18.7765369 L17.5,17.8265369 L20.4117647,17.8265369 C20.1322671,16.1903645 18.7214262,15.6256411 17.35395,15.0781686 C16.2917933,14.6529368 15.28855,14.2512778 14.9571309,13.3476794 L14.9406483,13.3027862 L14.9364077,13.2550775 C14.9094866,12.95285 14.8995279,12.691063 14.8966375,12.441346 C15.9662929,11.5663668 16.6965944,9.85162469 16.6965944,8.10125021 C16.6965944,5.59519038 15.1995899,4.26470588 13.3529412,4.26470588 C13.0581624,4.26470588 12.772293,4.29860855 12.5,4.36578377 L12.5,3.39197015 Z" id="Combined-Shape"></path>
                    <path d="M7.60305219,13.471775 L7.59816581,13.526395 L7.57931421,13.5778194 C7.19950649,14.6133723 6.04591573,15.073465 4.82452281,15.5605598 C3.25180197,16.1877084 1.62929209,16.834852 1.30791855,18.7082644 L17.4794118,18.7082644 C17.1592526,16.8340604 15.5431615,16.1871807 13.9767438,15.5600614 C12.7600638,15.0729666 11.6108679,14.6128739 11.2312336,13.5778194 L11.2123531,13.526395 L11.2074957,13.4717456 C11.176658,13.1255498 11.1652505,12.8256778 11.1619396,12.5396318 C12.3872093,11.5373601 13.2237557,9.57315589 13.2237557,7.5681356 C13.2237557,4.69749226 11.5089657,3.17344784 9.39366516,3.17344784 C7.27836459,3.17344784 5.56357466,4.69749226 5.56357466,7.5681356 C5.56357466,9.5857798 6.41068819,11.5620923 7.64858032,12.5584486 C7.64488848,12.8388582 7.63322291,13.1332241 7.60305219,13.471775 Z M4.61357466,7.5681356 C4.61357466,4.33935656 6.59583378,2.22344784 9.39366516,2.22344784 C12.1914965,2.22344784 14.1737557,4.33935656 14.1737557,7.5681356 C14.1737557,9.6346574 13.3865327,11.6925823 12.1238213,12.9490896 C12.129472,13.0691287 12.1371537,13.1884773 12.14722,13.3111626 C12.3504667,13.7823383 12.8654624,14.0918587 14.3298329,14.6781158 C14.4167941,14.7129308 14.4167941,14.7129308 14.5045905,14.7481687 C16.9748484,15.7408763 18.082736,16.5982751 18.415847,18.5482987 C18.5149581,19.1284925 18.06801,19.6582644 17.4794118,19.6582644 L1.30791855,19.6582644 C0.719050843,19.6582644 0.272032808,19.1280333 0.371595488,18.5476434 C0.715497946,16.5429011 1.7946602,15.7460211 4.47261262,14.6781432 C5.94276306,14.0918431 6.46013113,13.7818992 6.66333848,13.3111265 C6.67279479,13.1959786 6.68016235,13.0836982 6.68572953,12.9710622 C5.41032568,11.7169179 4.61357466,9.64729797 4.61357466,7.5681356 Z" id="Combined-Shape"></path>
                </g>
            </g>
        </g>
    </g>
</svg>